<?xml version="1.0" standalone="no"?>
<svg xmlns:xlink="http://www.w3.org/1999/xlink" id="wave" style="transform:rotate(180deg); transition: 0.3s" viewBox="0 0 1440 150" version="1.1" xmlns="http://www.w3.org/2000/svg"><defs><linearGradient id="sw-gradient-0" x1="0" x2="0" y1="1" y2="0"><stop stop-color="rgba(167, 25, 48, 1)" offset="0%"/><stop stop-color="rgba(167, 25, 48, 1)" offset="100%"/></linearGradient></defs><path style="transform:translate(0, 0px); opacity:1" fill="url(#sw-gradient-0)" d="M0,0L40,12.5C80,25,160,50,240,62.5C320,75,400,75,480,67.5C560,60,640,45,720,32.5C800,20,880,10,960,5C1040,0,1120,0,1200,10C1280,20,1360,40,1440,55C1520,70,1600,80,1680,70C1760,60,1840,30,1920,25C2000,20,2080,40,2160,50C2240,60,2320,60,2400,60C2480,60,2560,60,2640,55C2720,50,2800,40,2880,52.5C2960,65,3040,100,3120,97.5C3200,95,3280,55,3360,35C3440,15,3520,15,3600,27.5C3680,40,3760,65,3840,67.5C3920,70,4000,50,4080,40C4160,30,4240,30,4320,42.5C4400,55,4480,80,4560,97.5C4640,115,4720,125,4800,130C4880,135,4960,135,5040,130C5120,125,5200,115,5280,115C5360,115,5440,125,5520,120C5600,115,5680,95,5720,85L5760,75L5760,150L5720,150C5680,150,5600,150,5520,150C5440,150,5360,150,5280,150C5200,150,5120,150,5040,150C4960,150,4880,150,4800,150C4720,150,4640,150,4560,150C4480,150,4400,150,4320,150C4240,150,4160,150,4080,150C4000,150,3920,150,3840,150C3760,150,3680,150,3600,150C3520,150,3440,150,3360,150C3280,150,3200,150,3120,150C3040,150,2960,150,2880,150C2800,150,2720,150,2640,150C2560,150,2480,150,2400,150C2320,150,2240,150,2160,150C2080,150,2000,150,1920,150C1840,150,1760,150,1680,150C1600,150,1520,150,1440,150C1360,150,1280,150,1200,150C1120,150,1040,150,960,150C880,150,800,150,720,150C640,150,560,150,480,150C400,150,320,150,240,150C160,150,80,150,40,150L0,150Z"/></svg>